<svg width="34" height="35" viewBox="0 0 34 35" fill="none" xmlns="http://www.w3.org/2000/svg">
<path opacity="0.33" d="M0.500002 17.908C0.500003 8.79526 7.8873 1.40796 17 1.40796C26.1127 1.40796 33.5 8.79526 33.5 17.908C33.5 27.0207 26.1127 34.408 17 34.408C7.8873 34.408 0.500001 27.0207 0.500002 17.908Z" stroke="white"/>
<path d="M9.74239 21.68V13.736C9.74239 13.616 9.83839 13.508 9.97039 13.508H12.7904C14.2664 13.508 15.4784 14.708 15.4784 16.16C15.4784 17.648 14.2664 18.86 12.8024 18.86H11.3024V21.68C11.3024 21.8 11.1944 21.908 11.0744 21.908H9.97039C9.83839 21.908 9.74239 21.8 9.74239 21.68ZM11.3024 17.396H12.6944C13.3664 17.396 13.9304 16.856 13.9304 16.148C13.9304 15.488 13.3664 14.984 12.6944 14.984H11.3024V17.396ZM16.244 17.72C16.244 15.32 18.152 13.388 20.552 13.388C22.952 13.388 24.872 15.32 24.872 17.72C24.872 20.12 22.952 22.028 20.552 22.028C18.152 22.028 16.244 20.12 16.244 17.72ZM17.804 17.72C17.804 19.232 19.04 20.468 20.552 20.468C22.064 20.468 23.312 19.232 23.312 17.72C23.312 16.208 22.064 14.948 20.552 14.948C19.04 14.948 17.804 16.208 17.804 17.72Z" fill="white"/>
</svg>
