<svg width="138" height="28" viewBox="0 0 138 28" fill="none" xmlns="http://www.w3.org/2000/svg">
<path d="M12.0205 5.104C17.1001 5.1042 21.3045 8.80671 22.1104 13.6577C22.2015 14.2069 22.2598 14.7681 22.2598 15.3442C22.2598 15.7049 22.2404 16.061 22.2041 16.4116L22.1699 16.4077V16.4419H4.70801C5.23969 20.0085 8.30599 22.7476 12.0205 22.7476C14.5154 22.7475 16.7176 21.5091 18.0586 19.6177L18.0781 19.5894L18.1064 19.6089L20.373 21.1958L20.4014 21.2153L20.3809 21.2437C18.5267 23.8663 15.4768 25.5843 12.0205 25.5845C6.36525 25.5845 1.78049 20.9994 1.78027 15.3442C1.78027 9.68885 6.36512 5.104 12.0205 5.104ZM12.0195 7.94092C8.52223 7.94112 5.59859 10.3688 4.82422 13.6294H19.2158C18.4416 10.3686 15.517 7.94092 12.0195 7.94092Z" fill="#D6FDDB" stroke="#D6FDDB" stroke-width="0.069"/>
<path d="M35.5249 5.104C39.0079 5.10414 42.0803 6.84638 43.9302 9.50342L43.9497 9.53174L43.9214 9.55127L41.6558 11.1382L41.6274 11.1577L41.6079 11.1294C40.271 9.20359 38.0465 7.94105 35.5249 7.94092C31.4361 7.94092 28.1216 11.2554 28.1216 15.3442C28.1218 19.4328 31.4362 22.7476 35.5249 22.7476C38.0197 22.7474 40.222 21.509 41.563 19.6177L41.5825 19.5894L41.6108 19.6089L43.8765 21.1958L43.9048 21.2153L43.8853 21.2437C42.0311 23.8663 38.9812 25.5843 35.5249 25.5845C29.8696 25.5845 25.2849 20.9994 25.2847 15.3442C25.2847 9.68885 29.8695 5.104 35.5249 5.104Z" fill="#D6FDDB" stroke="#D6FDDB" stroke-width="0.069"/>
<path d="M80.6431 2.4668L80.6519 2.4873L90.3647 25.0342L90.3853 25.083H87.3022L87.2944 25.0596C87.2658 24.9736 87.2368 24.8972 87.2085 24.8311L87.1216 24.6572C86.4279 23.0965 85.9169 21.9401 85.5894 21.1885C85.263 20.4405 84.7649 19.3202 84.0952 17.8271H73.8794C73.1708 19.4742 72.6439 20.6908 72.2983 21.4775C71.9514 22.2681 71.4213 23.4632 70.7085 25.0625L70.6987 25.083H67.6753L67.6968 25.0342L77.4087 2.4873L77.4409 2.49414V2.4668H80.6431ZM78.9956 5.77344C78.4591 7.01901 77.9318 8.25455 77.4146 9.48047V9.48145C76.5928 11.373 75.7909 13.2555 75.0073 15.1279H82.9653C82.8856 14.9638 82.76 14.6864 82.5903 14.2949L81.8608 12.5742C81.3016 11.3023 80.8193 10.1745 80.4146 9.19141C80.0122 8.21409 79.5429 7.07511 79.0073 5.77344H78.9956Z" fill="#D6FDDB" stroke="#D6FDDB" stroke-width="0.069"/>
<path d="M106.815 2.4668V5.05078H98.7212V25.083H95.8481V5.05078H87.7837V2.4668H106.815Z" fill="#D6FDDB" stroke="#D6FDDB" stroke-width="0.069"/>
<path d="M113.653 2.4668L113.663 2.48535C115.744 6.66719 117.285 9.77977 118.288 11.8223C119.288 13.8618 120.787 16.9106 122.787 20.9668H122.831C124.907 16.7948 126.446 13.6891 127.447 11.6494C128.449 9.60692 129.962 6.55167 131.985 2.48535L131.995 2.4668H135.519V25.083H132.588V7.79688H132.529C131.262 10.3888 130.281 12.3909 129.589 13.8037C128.896 15.2201 127.932 17.1914 126.699 19.7158V19.7168C126.121 20.8343 125.673 21.7297 125.355 22.4033C125.037 23.0784 124.608 23.9649 124.069 25.0635L124.059 25.083H121.617L121.607 25.0625C121.01 23.8105 120.557 22.886 120.25 22.2891C120.095 21.9904 119.905 21.6119 119.678 21.1543L118.89 19.542C117.618 16.96 116.65 14.9848 115.985 13.6162C115.322 12.2517 114.366 10.3121 113.119 7.79688H113.087V25.083H110.128V2.4668H113.653Z" fill="#D6FDDB" stroke="#D6FDDB" stroke-width="0.069"/>
<path d="M53.1108 8.78955C55.3343 5.9952 57.6478 5.46874 59.5464 5.76807C61.4414 6.06689 62.9175 7.18723 63.4731 7.67725C65.5962 9.54976 66.936 12.2881 66.936 15.3433C66.936 20.9985 62.351 25.5833 56.6958 25.5835C51.0404 25.5835 46.4556 20.9986 46.4556 15.3433C46.4557 10.4995 49.835 6.97999 53.104 5.75439L53.2271 5.70752L53.1431 5.80811C49.3678 10.3055 48.7022 14.5424 49.7544 17.6509C50.8069 20.7598 53.5788 22.7464 56.6948 22.7466C60.7836 22.7466 64.0981 19.4321 64.0981 15.3433C64.098 11.2546 60.7835 7.93994 56.6948 7.93994C55.4139 7.93999 54.5389 8.16156 53.1577 8.83936L53.1538 8.84521H53.1372L53.1274 8.80322L53.1108 8.78955Z" fill="#D6FDDB" stroke="#D6FDDB" stroke-width="0.069"/>
</svg>
